<svg width="58" height="64" viewBox="0 0 58 64" fill="none" xmlns="http://www.w3.org/2000/svg">
<path d="M0 30.781C1.61509 40.7262 17.0409 40.7128 18.6691 30.781H0Z" fill="#BDA976"/>
<path d="M39.4395 30.781C40.2644 36.8643 47.007 39.5372 52.2517 37.6599C55.1302 36.6274 57.7569 34.0305 58 30.781H39.4395Z" fill="#BDA976"/>
<path d="M38.3932 51.2566C37.9069 50.8275 35.8186 49.5223 35.2932 49.8799L31.7157 55.19C31.4075 55.4939 30.9603 55.3643 30.6563 55.1363L30.4045 55.5431L31.4899 63.9953H35.5754V55.7487C35.5754 55.5475 36.053 55.1318 36.2918 55.1318C36.4785 55.1318 37.0082 55.5297 37.0082 55.6369V63.9998H40.4337V54.9575C40.4337 53.9027 39.1703 51.9449 38.3932 51.2566Z" fill="#BDA976"/>
<path d="M26.5144 55.293L22.8153 49.8846C22.5505 49.679 21.4347 50.1349 21.1004 50.2958C19.6676 50.9752 17.6748 53.2771 17.6748 54.9577V64H21.1004V55.6371C21.1004 55.0471 22.5375 54.9801 22.5375 55.8651V64H26.623L27.6693 55.4539L27.4435 55.1276C27.3176 55.1008 27.0267 55.5388 26.5144 55.293Z" fill="#BDA976"/>
<path d="M26.7358 7.57397V28.622C28.225 28.023 29.7837 27.7235 31.377 28.0543V7.57397C29.8662 8.35618 28.2467 8.35171 26.7358 7.57397Z" fill="#BDA976"/>
<path d="M33.9734 41.9329C34.286 40.4043 34.2382 38.5538 33.8648 37.0386C33.791 36.7391 33.4784 35.5412 33.1094 35.577C31.4639 36.4441 29.7099 36.5693 27.9255 36.0955C27.526 35.9882 25.3292 35.0674 25.1859 35.2149C25.1121 36.0999 25.0166 36.9894 24.8212 37.8565C24.387 39.7785 23.8139 39.9529 24.3566 42.1564C25.8154 48.0788 32.7707 47.7794 33.969 41.9285L33.9734 41.9329Z" fill="#BDA976"/>
<path d="M3.31702 29.248L9.33453 8.02573L15.3564 29.3017H16.902L10.3722 5.87579L8.35332 5.85791L1.77139 29.1318C1.7931 29.3955 3.06086 29.324 3.31702 29.248Z" fill="#BDA976"/>
<path d="M47.7928 5.85757L41.2065 29.3013H42.7522L48.8261 8.02539L54.7004 29.1091C54.9218 29.4846 55.8248 29.2254 56.2286 29.2969L49.803 6.04977C49.5772 5.65643 48.2443 5.95591 47.7885 5.8531L47.7928 5.85757Z" fill="#BDA976"/>
<path d="M23.0802 37.9014C23.1409 38.0355 23.0281 38.107 23.3103 38.0623C23.3407 37.3874 23.5534 36.7393 23.6402 36.0688C23.7357 35.3537 23.4318 34.8039 24.0223 34.1871C25.112 33.0517 26.9355 34.3077 28.1208 34.643C29.2757 34.9648 30.2916 35.0184 31.4595 34.6832C32.762 34.3077 33.2136 33.1456 34.3554 34.5983C34.7983 35.157 34.859 35.595 35.1022 36.2208C35.1673 36.3951 35.037 36.5292 35.3496 36.4711C35.38 35.5861 35.3236 34.5357 34.7983 33.7982C34.0732 32.7791 34.1383 32.9221 33.6043 31.7287C30.9298 25.7616 20.6228 32.3232 23.0802 37.9014Z" fill="#BDA976"/>
<path d="M33.6955 2.62615V4.3917H51.4832V2.4563H33.5869C33.5565 2.54122 33.6955 2.59039 33.6955 2.62615Z" fill="#BDA976"/>
<path d="M24.4174 2.4519H6.62969V4.3873H24.4174V2.4519Z" fill="#BDA976"/>
<path d="M26.9529 5.92466C30.0876 8.63333 34.2078 3.97586 31.3336 1.01689C28.199 -2.21026 23.5881 3.01934 26.9529 5.92466Z" fill="#BDA976"/>
<path d="M31.5941 47.3904C29.979 48.2083 28.1469 48.0966 26.5144 47.3904L26.4493 48.5883L29.0022 51.3684L31.542 48.7537L31.5985 47.3904H31.5941Z" fill="#BDA976"/>
<path d="M28.9457 56.6069L28.06 63.9999H30.0485C29.6361 61.6935 29.5275 59.3156 29.1672 57.0047C29.1411 56.8349 29.1628 56.6516 28.9457 56.6069Z" fill="#BDA976"/>
<path d="M33.5826 49.6655C32.5189 49.5002 32.6318 49.7907 32.0934 50.3539C31.4205 51.0601 30.7128 51.735 30.0485 52.4502L31.0949 53.5274L33.5783 49.6611L33.5826 49.6655Z" fill="#BDA976"/>
<path d="M25.581 49.7728L24.5259 49.6655L26.8487 53.4201C26.9746 53.5095 28.0297 52.5396 27.9037 52.2848L25.5853 49.7728H25.581Z" fill="#BDA976"/>
<path d="M28.7851 54.4391C29.2757 55.1096 29.9009 53.7374 29.0152 53.5452C28.6375 53.8134 28.4812 54.0234 28.7851 54.4391Z" fill="#BDA976"/>
</svg>
