<svg width="58" height="64" viewBox="0 0 58 64" fill="none" xmlns="http://www.w3.org/2000/svg">
<path d="M17.4907 43.2346C21.2081 47.5135 21.0672 54.2014 16.8071 57.9603C9.70219 64.2276 -0.168346 56.186 2.9993 46.7984C3.46311 45.4218 4.38729 44.5462 4.77895 43.2384C2.25033 43.0816 0.374483 41.2118 0 38.4203L0.0412275 12.1466L10.087 0.766803L11.4578 0.380594C24.5681 1.37097 39.0871 -0.858337 52.0325 0.392065C55.0627 0.682679 57.1413 2.04015 57.6978 5.5581C56.9523 15.9131 58.6667 27.9162 57.691 38.0724C57.3302 41.8083 54.7294 43.5749 51.5068 43.2384C57.1653 50.7791 52.2146 61.6847 43.172 59.9678C36.4038 58.683 34.0711 48.4312 38.795 43.2346H31.2367V57.3829C32.1299 57.5511 34.6345 56.8705 34.9678 58.01C34.8956 59.3942 35.5312 63.046 34.3287 63.696C33.7412 64.0134 24.0116 64.0823 22.8022 63.9025C20.3217 63.5393 21.3936 59.7689 21.4211 57.7423L25.0491 57.3829V43.2346H17.4907ZM11.6502 2.70168V10.1582C11.6502 10.7662 9.7125 13.4085 9.07348 13.4085H2.20223C1.71094 13.745 1.72812 14.1694 1.66971 14.7277C1.1475 19.6643 1.25057 31.8854 1.67315 36.9405C1.84493 38.9672 2.508 40.6535 4.41134 41.1582C5.06067 41.3303 6.97431 41.5444 7.4553 41.2385C7.74046 41.055 9.53385 37.7473 9.93238 37.1241C8.53408 36.9482 6.17038 34.6232 7.16327 33.0746C8.15617 31.5259 8.80893 34.1453 9.25556 34.6156C12.3889 37.8926 14.5464 32.5278 14.9106 32.5278H25.0457C23.6886 23.8859 32.5869 23.882 31.2298 32.5278H41.7084C42.2238 32.5278 43.7732 37.5982 47.1573 34.7686C47.951 34.1032 48.3564 32.0689 49.6207 33.2849C50.4315 34.6997 47.8548 36.6231 47.0405 37.3344L49.339 41.3303C52.8605 41.5674 55.5952 41.5406 55.98 36.9405C55.341 27.2164 56.784 16.2802 55.98 6.70143C55.8323 4.93099 55.4887 3.6347 53.9221 2.87375L11.6468 2.70168H11.6502ZM3.4047 11.4966H8.38635C8.47224 11.4966 9.42391 10.3762 9.54416 10.1085C10.1282 8.84279 10.008 6.64407 9.93238 5.17954C9.90146 4.60596 10.1935 4.08209 9.42047 4.2274L3.4047 11.4966ZM26.7669 29.2775V57.3829H29.5154V29.2775C29.5154 29.1169 29.1135 28.4248 28.9279 28.2909L27.2067 28.4209C27.0899 28.6733 26.8047 29.0442 26.7669 29.2737V29.2775ZM25.0491 34.8221H15.4294C15.2713 34.8221 14.4434 37.1432 13.3749 37.3344L15.9447 41.3226H25.0491V34.8221ZM41.1965 34.8221C40.5953 34.3862 32.6865 35.1509 31.2332 34.8221V41.3226H41.0248L43.6083 37.3152C42.4162 37.2694 41.3374 34.9253 41.1965 34.8221ZM13.0244 40.5541L11.4784 38.2636C9.49606 41.1506 10.0939 40.5502 13.0244 40.5541ZM9.84305 42.5616C1.31584 44.1791 2.96838 59.9372 12.7736 58.0559C21.1497 56.446 19.614 40.707 9.84305 42.5616ZM43.8557 42.5616C35.0605 44.2058 36.7302 59.4477 46.1507 58.1132C55.1555 56.836 53.3896 40.7797 43.8557 42.5616ZM32.951 59.2948H23.3313V61.5891H32.951V59.2948Z" fill="#BDA976"/>
<path d="M21.8918 4.6977C31.6043 4.09736 33.1915 21.0485 23.1629 22.1995C12.3717 23.4423 11.2413 5.3554 21.8918 4.6977ZM21.2699 6.90789C11.6124 9.63048 17.1369 24.6582 25.7294 18.953L21.2699 13.982V6.90789ZM22.9912 10.7279C23.4 11.2403 25.3446 8.57127 25.7328 8.24624C25.0869 7.32852 24.039 6.90407 22.9912 6.90789V10.7279ZM27.4506 17.2323C28.3404 14.873 28.7802 11.5271 26.9387 9.59224L23.6989 13.5461C24.228 14.1159 26.9146 17.6644 27.4472 17.2285L27.4506 17.2323Z" fill="#BDA976"/>
<path d="M51.847 4.99614V18.762H35.6996V12.835C36.3008 11.6191 40.183 12.6247 40.5129 12.2653L40.6606 8.41467L45.3227 8.05905L45.522 4.95408C46.3362 4.30784 51.8504 4.62905 51.8504 4.99614H51.847ZM50.1292 6.90807H47.0371V16.8501H50.1292V6.90807ZM45.3193 9.96715H42.2272V16.8501H45.3193V9.96715ZM40.5129 14.1696H37.4174V16.8501H40.5129V14.1696Z" fill="#BDA976"/>
<path d="M6.66853 28.3217C6.52424 28.2949 5.83024 27.9049 5.78901 27.6945C5.6722 27.2319 5.95392 26.0273 6.32497 26.0273H20.411C20.4729 26.0273 21.2081 26.8342 21.2424 27.0368L20.411 28.3217C16.2402 27.7901 10.6539 29.0367 6.66853 28.3217Z" fill="#BDA976"/>
<path d="M50.301 26.0273C50.7785 26.1918 50.9056 27.163 50.8369 27.6945C50.7957 27.9087 50.0296 28.3217 49.9574 28.3217H36.2149C36.1531 28.3217 35.4179 27.5148 35.3835 27.3122C35.277 26.9183 36.1256 26.0273 36.2149 26.0273H50.301Z" fill="#BDA976"/>
<path d="M50.8163 21.4387L50.3009 23.3507H41.7119C41.066 23.3507 41.066 21.4387 41.7119 21.4387H50.8163Z" fill="#BDA976"/>
<path d="M5.80963 21.4387H13.8833C14.5292 21.4387 14.5292 23.3507 13.8833 23.3507H6.32497L5.80963 21.4387Z" fill="#BDA976"/>
<path d="M46.1164 45.0204C46.7348 45.7393 48.9095 47.0165 47.9063 48.5996C46.5836 50.6874 45.9137 44.9363 44.2577 47.223L43.976 48.3242C44.2646 49.6129 48.3873 49.3682 48.0644 52.9473C47.9132 54.5954 46.8275 54.7674 46.1164 55.5934C45.7865 55.9796 45.9996 57.4021 44.8246 56.9738C43.9691 55.4481 41.6397 54.5112 42.2685 52.2781C42.9796 49.7658 44.3161 54.0371 45.151 53.9568C48.2945 51.3298 43.9107 51.5554 42.9075 50.3126C40.8083 47.7162 43.2236 45.4028 44.828 43.6362C46.003 43.2079 45.7865 44.6304 46.1198 45.0166L46.1164 45.0204Z" fill="#BDA976"/>
<path d="M12.4541 45.0163C13.66 46.2438 14.6838 46.6338 14.0448 48.9587L12.6534 48.8058L12.272 47.1386C10.8875 46.3776 9.83618 46.8709 10.3206 48.7255C10.6401 49.7579 13.2203 48.8173 14.0551 51.4863C14.7835 53.815 13.6429 54.3924 12.4541 55.6008C11.9147 56.1514 11.8804 57.333 10.6264 56.9965C10.4477 54.8628 7.51714 54.576 8.52377 51.8763L9.88772 51.6966C10.0698 54.5569 12.6568 54.794 12.3511 51.8993C12.2205 51.3142 7.97064 51.3028 8.28672 47.7198C8.48598 45.4561 10.5096 45.6396 10.6264 43.6168C11.8804 43.2765 11.9079 44.4542 12.4541 45.0125V45.0163Z" fill="#BDA976"/>
</svg>
