<svg width="58" height="64" viewBox="0 0 58 64" fill="none" xmlns="http://www.w3.org/2000/svg">
<path d="M0.682404 13.918C0.303299 13.8336 0.0847566 13.2726 0.0535362 12.8903C-0.115946 10.7952 0.182878 8.42214 0.0535362 6.29729C0.0981368 5.84551 0.294379 5.62707 0.561983 5.32919C1.93568 3.79512 3.66618 1.96814 5.138 0.568123C5.41006 0.304998 5.68213 0.0269798 6.06569 0.0170506C8.55886 -0.0673478 11.1011 0.195777 13.6076 0.0666968L19.9766 1.26813C20.0123 1.45182 19.9142 1.39721 19.7982 1.40218C19.7358 1.48161 20.1461 2.18659 20.1862 2.20148C20.543 2.33056 20.1104 1.78942 20.0836 1.71495C20.0257 1.55112 19.9766 1.37239 20.1862 1.33267L20.6635 1.93339C20.8686 1.82417 20.4672 1.44189 20.5118 1.40218C20.8552 1.28303 20.8686 1.93836 21.0916 1.53622L35.4976 4.2618C36.9739 4.2618 38.4546 4.12279 39.922 4.05825C44.9128 3.84477 49.8902 3.59654 54.881 3.39795C55.5099 3.37313 56.2904 3.24901 56.9059 3.26887C57.4143 3.28377 57.7934 3.74051 57.838 4.29655V14.8861C57.8113 15.4967 57.4188 15.9932 56.8523 15.9833C53.9221 15.9386 50.8803 15.6655 47.9412 15.5116C47.4149 15.4818 46.2419 15.6258 45.8182 15.3428C45.6308 15.2187 45.5372 14.8265 45.3053 14.7818C45.0287 14.7272 45.4926 15.3031 45.5729 15.3478L45.4212 15.452L40.698 15.179C40.649 15.1691 40.5508 15.2485 40.5508 15.2832V25.7387C40.9389 26.0962 41.3938 26.404 41.7506 26.8011C42.1832 27.2877 42.4731 27.8983 42.8656 28.4196L47.7003 28.4345C48.9313 28.5636 49.966 29.5863 50.2515 30.9218C50.3808 31.5324 50.2515 32.431 50.9562 32.6644C51.8794 32.9722 52.1247 31.9097 52.6911 31.3934C53.989 30.2118 56.0986 30.4998 57.0218 32.0984C58.6944 34.9928 55.5188 38.185 53.1683 38.885L55.2601 46.8383L55.1352 46.9128L54.4439 46.744L54.5376 45.7411C54.3413 45.6965 54.4841 45.9546 54.3012 45.8057C54.2521 46.1681 54.435 46.6844 54.1496 46.9376L53.3735 45.8653H53.1059L51.9374 41.5461L49.0963 50.6015C48.8956 50.4824 48.7127 50.7405 48.6592 50.9441C48.5656 51.2916 48.851 51.5398 48.6771 51.932L48.4496 51.9221C48.4318 51.3214 47.5933 51.5299 47.4952 51.9122C47.4907 51.937 47.4907 52.4235 47.4996 52.4483C47.5085 52.4632 47.5888 52.4682 47.6067 52.5079C47.7405 52.8306 47.7851 52.9796 48.0883 53.2179C48.5923 53.615 48.6369 53.1235 48.9491 53.1235H55.0193L53.8909 48.6455C54.0693 48.427 54.1629 48.2433 54.1183 47.9305H53.9399L53.8775 48.3277L53.7303 48.2582L53.1594 46.0639L54.5376 47.8313L54.774 47.7617C54.6714 47.6029 54.2566 47.1759 54.4796 46.9972C54.5197 46.9674 55.3493 47.1809 55.4028 47.3298L56.9237 53.0788C58.0744 53.1881 58.0744 54.1016 57.9406 55.1441C57.5437 58.2569 55.2601 60.7492 52.4681 61.1712C49.413 61.6329 46.233 59.4087 45.5639 56.0229C45.5729 55.9782 45.9029 55.9385 46.0144 55.7151C46.0501 55.6406 46.0278 55.5115 46.059 55.4668C46.0858 55.4321 46.3043 55.4172 46.3445 55.2881C46.1393 55.1094 46.0055 54.8611 45.8405 54.6526C45.7825 54.5782 45.6888 54.5583 45.6487 54.5037C45.5327 54.3548 45.5193 54.1065 45.2696 54.0172C45.3766 53.6399 45.497 53.2129 45.8092 53.6895L45.6888 53.754L45.7513 53.9228C46.0679 53.6994 46.2731 54.4243 46.4961 54.5931C46.7191 54.7619 47.067 54.747 47.2454 54.4888C47.0759 54.2902 46.8351 54.464 46.6254 54.315C46.5764 54.2803 46.1081 53.6746 46.1125 53.6299C46.2686 53.3618 46.4604 53.2476 46.679 53.059C46.7369 53.059 47.3167 53.9278 47.4684 53.9774C47.6825 54.047 47.8921 53.9427 48.0214 53.759L47.8743 53.6101C47.629 53.9923 46.9867 53.2228 46.9153 52.9895C46.8574 52.8008 47.1606 52.5973 46.8663 52.5327L46.679 52.6569L46.5853 52.4881L50.6573 39.1382C48.5745 38.9645 46.786 37.6737 45.6175 35.7921C45.4881 35.5885 45.2294 34.9133 45.0644 34.8786L42.8032 34.8935C42.2323 35.7424 41.7149 36.5169 40.9255 37.1325C38.6821 38.885 35.7964 38.8155 33.6155 36.9736C32.9197 36.3878 32.4737 35.658 31.9563 34.8935C31.3185 34.963 30.3552 34.7545 29.7575 34.8835C29.5345 34.9332 29.4498 35.3403 29.3338 35.5438C28.4106 37.1226 27.2153 38.2347 25.6007 38.8453C25.4402 38.9049 25.0744 38.8801 25.0611 39.1134L28.7808 52.9895C30.6807 52.8803 29.5969 56.2959 29.1063 57.3236C26.2118 63.3556 17.9607 61.6825 17.1802 54.886C17.1088 54.2505 17.0107 53.2774 17.7198 53.0391C17.925 52.9696 18.1792 53.0739 18.2639 52.8455L22.559 39.0786C20.9623 38.8949 19.4057 37.8673 18.3754 36.5119C17.4433 35.2906 16.859 33.8261 17.6262 32.287C18.5405 30.4452 21.0381 30.0828 22.3538 31.5523C22.6616 31.8948 22.8979 32.5998 23.3707 32.6842C23.7008 32.7438 24.0709 32.6445 24.2716 32.3317C24.5526 31.8948 24.4322 31.6218 24.5036 31.1551C24.7355 29.6409 25.8237 28.5487 27.1974 28.4295C28.7362 28.2955 30.4176 28.5239 31.9697 28.4295C32.4871 27.2976 33.281 26.4288 34.222 25.7288V14.9109L14.3302 14.0421L14.3079 45.4433L14.2454 46.739C14.125 46.7539 14.0492 46.6249 13.9778 46.5405C13.7593 46.2773 13.5853 45.9447 13.3802 45.6667L13.1661 45.7114L14.3079 47.5681L14.2811 63.2563C14.2142 63.5592 13.8529 63.9166 13.5586 63.9166C11.1234 63.718 8.3537 64.1797 5.95865 63.9166C5.5394 63.8719 5.22274 63.5492 5.15138 63.0826V55.9236C5.32086 55.9534 5.42344 55.9931 5.58401 55.9186C5.60185 55.9087 5.81593 55.8044 5.82485 55.7995C5.89175 55.7548 6.30207 55.2831 6.28869 55.2285C6.11029 55.1541 6.12813 55.02 6.04785 54.8959C5.96757 54.7718 5.43236 53.9626 5.37884 53.9377C5.3387 53.9228 5.22274 54.0172 5.15138 53.9923V35.0821C5.32978 35.0474 5.92297 35.7424 5.92743 35.3204L5.53941 34.4864C5.40114 34.6006 5.48588 34.5956 5.52156 34.7048C5.57509 34.8835 5.68659 35.0424 5.74903 35.2162L5.15138 34.8835V14.0173L5.06218 13.918H0.682404ZM19.816 2.48943C19.8785 2.43978 19.9855 2.45964 20.0346 2.36531C19.8428 2.08729 19.651 1.55608 19.2719 1.81424L19.1961 2.19652L19.4057 1.86389C19.9008 2.12701 19.379 2.13694 19.321 2.37524C19.2764 2.57383 19.4815 2.69298 19.6421 2.66815C19.7714 2.6483 19.7581 2.52915 19.8116 2.48446L19.816 2.48943ZM12.4971 2.06744H6.9354V6.56041C6.9354 6.79871 6.43588 7.32496 6.24855 7.32496H1.90892V11.9172H6.18611C6.25301 11.9172 6.62766 12.1406 6.69456 12.2151C6.85512 12.3988 6.92202 12.6917 6.9354 12.9449C6.75254 19.4932 7.17179 26.1955 6.9354 32.7289C6.92648 32.9176 6.82836 33.0168 6.8239 33.1112C6.8239 33.275 7.04244 34.0942 6.93094 34.2232C6.72132 34.2679 6.40466 33.8857 6.53846 33.6871C6.61874 33.563 6.85958 33.7268 6.81052 33.4934C6.58752 33.4537 6.39574 33.5431 6.32883 33.7963C6.30653 34.0545 6.67672 34.4913 6.92648 34.3573V52.1703C6.93986 52.3937 6.85958 52.5824 6.65888 52.6519C6.58306 52.6469 6.40912 52.359 6.34667 52.2845C6.31545 52.2448 6.31099 52.0959 6.24409 52.2696C6.16827 52.4632 6.43142 52.6966 6.39574 52.9547C6.39128 52.9994 5.92297 53.4264 5.81147 53.3172L5.53048 52.8703C5.28072 53.2774 5.79363 53.2973 5.63753 53.6945L5.74011 53.8335C6.08353 53.7193 6.20841 54.2952 6.43588 54.5384C6.4448 54.5484 6.60536 54.6576 6.6232 54.6675C6.72578 54.7321 6.86404 54.7172 6.93986 54.8363V61.9258H12.5016V49.5738C12.5016 49.4299 12.8316 49.2909 12.8896 49.1419C13.0278 48.7845 12.787 48.4171 12.4971 48.3079V47.6823C12.5774 47.588 13.0234 48.3128 13.0992 48.3873C13.175 48.4618 13.233 48.4171 13.2642 48.4369C13.291 48.4518 13.2999 48.5809 13.4426 48.6008C13.786 48.6405 14.2767 48.1589 14.0893 47.7469C13.8039 48.0844 13.844 48.4618 13.3311 48.2582C13.0323 48.1391 12.8762 47.6476 12.8182 47.3249C12.9431 47.0617 13.1616 47.027 13.4025 46.9823L13.4605 46.749L12.9966 46.7986L12.5016 47.2802V29.3033C12.5016 29.2636 12.9966 29.1593 13.0278 28.792C13.0546 28.4593 12.7201 28.5288 12.6889 28.4941C12.671 28.4742 12.6577 28.1068 12.4971 28.0075L12.506 12.5626C12.5328 12.3889 12.5863 12.235 12.68 12.091C12.9476 11.664 13.6121 11.0832 13.9689 10.6612C14.076 10.5321 14.7762 9.69805 14.7762 9.62854L12.68 7.1661C12.6398 7.10156 12.5016 6.81361 12.5016 6.76396V2.06744H12.4971ZM18.5984 2.59865C18.3219 2.55893 18.4646 2.70787 18.4067 2.77738C18.3665 2.82206 18.1881 2.81709 18.1435 2.99582L14.4328 2.26602C14.3837 2.25113 14.29 2.33553 14.29 2.36035V5.15543C14.4684 5.42848 15.7173 5.11571 15.7842 5.19018C15.6281 5.60224 16.0339 6.10367 16.3996 5.8604C16.4799 5.80579 16.694 5.39373 16.4442 5.45827C16.4978 5.69161 16.1766 5.93984 16.083 5.69161C16.0428 5.58238 16.2525 5.5377 16.3238 5.42848C16.3729 5.35401 16.3684 5.20011 16.413 5.19018C16.587 5.15543 16.6851 5.34408 16.8233 5.32919C16.9348 5.31926 17.0374 5.15543 17.2471 5.12564C17.5414 5.08592 17.9027 5.1455 18.206 5.12564C20.5921 4.98663 22.9916 4.8228 25.3777 4.71854C25.8237 4.69868 26.2787 4.7384 26.7247 4.71854L18.4736 3.05043C18.4334 2.86177 18.5538 2.74759 18.5895 2.58872C18.817 2.62347 18.9062 2.93128 19.1203 3.02561L19.3656 2.8866C19.0668 2.83199 18.7947 2.62347 18.9463 2.25609H18.5895C18.5761 2.35538 18.6074 2.49936 18.5895 2.58872L18.5984 2.59865ZM5.138 3.46249L3.34506 5.22493C3.34506 5.2994 3.55914 5.32422 3.61266 5.32422H5.08002C5.06218 5.25968 5.138 5.18025 5.138 5.15543V3.45753V3.46249ZM15.0081 5.8604C15.7797 6.71928 16.0919 6.61502 15.5166 5.46323C15.2802 5.4533 15.7128 6.198 15.6637 6.26254C15.4496 6.12849 15.2891 5.82068 15.0081 5.86537V5.8604ZM53.7705 5.46323C52.205 5.54763 50.644 5.58238 49.074 5.66182C48.4942 5.69161 47.8564 5.67175 47.2811 5.73132C47.2231 5.73629 46.8395 5.78097 46.951 5.92991L50.1489 8.3725L53.766 5.46323H53.7705ZM41.3269 6.06395L36.5413 6.29729L38.8337 8.32285L41.3269 6.06395ZM48.4942 9.53422L44.1769 6.20793L40.31 9.62854L44.217 13.0492L48.4942 9.72287V9.54415V9.53422ZM55.9826 6.32708C55.4296 6.54552 55.0549 7.19092 54.4885 7.32496V6.39162C54.1005 6.63488 54.4662 7.21574 54.2477 7.58809C53.8998 7.36965 53.7392 6.94269 53.4627 6.63488C53.4092 6.57531 53.3066 6.44126 53.2352 6.52566C53.1148 6.6597 53.8686 7.50865 53.9578 7.68738C53.9845 7.74696 54.047 7.78667 53.9845 7.86114C53.7972 7.94058 52.9944 8.71009 52.874 8.59094C52.7 7.97036 53.0524 7.94058 53.4716 7.75689C53.5028 7.59802 53.3512 7.65759 53.262 7.65759C52.6198 7.6427 52.4369 8.2881 52.7491 8.85406L51.6475 9.65833C51.3219 9.31577 51.973 9.19166 51.7054 8.85903C51.5315 9.00797 51.2059 9.15691 51.2684 9.47464C51.313 9.71294 51.7679 10.3186 51.7367 9.72287C51.8437 9.65337 52.254 10.0505 52.3745 10.1449C52.5083 10.2491 52.6421 10.3434 52.7848 10.4527C53.7258 11.1775 54.8275 12.23 55.7864 12.8357C55.8533 12.8804 55.8934 12.935 55.9826 12.9151V6.32211V6.32708ZM31.5772 6.53062L28.1073 6.69446L29.753 8.26328L31.5772 6.53062ZM37.3084 9.53422L34.1284 6.79871L31.2159 9.62358L34.1284 12.4484L37.3084 9.71294V9.53422ZM23.4421 6.86325L21.1095 7.02709L22.2156 8.19377L22.336 8.12923L23.4421 6.86325ZM16.9215 7.19588C16.4532 7.17602 15.9849 7.22567 15.5166 7.26042C15.4273 7.26539 15.3426 7.21078 15.3694 7.35972L16.1142 8.12923L16.2703 8.02994L16.9215 7.19588ZM25.7256 11.9718C25.8505 12.0364 26.0512 11.813 26.1627 11.7186C26.9075 11.0782 27.6033 10.2739 28.3481 9.62358L25.8059 7.25546L23.5669 9.62358L25.7301 11.9718H25.7256ZM19.5886 8.21859C19.5038 8.1342 19.1069 7.71717 19.0534 7.7271L17.4032 9.62358L19.0534 11.5151L20.8731 9.68812L20.8329 9.51932C20.378 9.14201 20.0167 8.63562 19.593 8.21859H19.5886ZM50.8714 9.89663C50.9428 9.79734 51.081 9.69308 50.9294 9.59379L50.5726 9.84202L50.2158 9.3257C49.9036 9.59876 50.2559 9.72784 50.2961 9.90656C50.3273 10.0356 50.2336 10.1796 50.2425 10.1895C50.2515 10.2044 50.47 10.2442 50.5726 10.3236C50.8714 10.547 51.2817 11.5201 51.7367 11.0881C51.9552 10.8846 51.4245 10.8896 51.3932 10.8796C51.1836 10.8151 50.7421 10.1945 50.7778 9.96614C50.7911 9.91649 50.8536 9.92146 50.8714 9.89167V9.89663ZM49.9972 10.4626C49.5111 10.4576 49.2167 11.0186 49.3193 11.5201C49.2078 11.5598 48.7395 12.086 48.8198 11.6988C48.8688 11.4605 49.2257 11.4307 48.8688 11.2867C48.8332 11.4903 48.6057 11.4952 48.5968 11.5151C48.4987 11.7137 48.7217 12.0761 48.4496 12.225C48.2221 12.3492 47.8876 12.0066 47.5219 12.3889C47.2097 12.7116 47.5175 13.218 46.9912 13.2626L46.9243 13.1236L46.5764 13.3222L46.1794 12.93C46.01 13.2428 46.3445 13.2924 46.3623 13.5009C46.3846 13.7244 45.9386 14.1612 45.7959 14.1364C45.7602 14.0619 45.4792 13.5754 45.4034 13.8336C45.3276 14.0024 45.6353 14.1066 45.6442 14.1811L45.613 14.5336L45.9431 14.5634C46.1215 14.8414 46.5139 15.3627 46.8217 15.3776C47.1473 15.3875 47.4104 15.0797 47.116 15.03C46.9599 15.0052 46.8217 15.1492 46.5808 14.9953C46.5496 14.9754 46.0679 14.469 46.0635 14.4293C46.0412 14.2705 46.4961 13.7343 46.6567 13.8187C47.0893 14.2208 47.2588 14.9804 47.9233 14.6031C47.9412 14.2059 47.7583 14.4194 47.6022 14.3995C47.1383 14.34 47.2811 14.2357 47.0893 13.9726C46.9733 13.8137 46.7592 13.7144 46.7905 13.4712C47.0402 13.5655 47.6423 13.4712 47.8252 13.6002C47.8921 13.6499 47.8653 13.769 47.9278 13.8336C47.9412 13.8485 48.2355 14.0719 48.2578 14.0768C48.6815 14.0917 48.8064 13.6449 49.0919 13.6002L53.7928 13.8038C52.8918 12.9797 51.8883 12.2499 50.9249 11.5002C50.7242 11.3463 50.3496 10.8647 50.0641 10.9491C49.9259 10.9888 49.7564 11.3314 49.5423 11.2718C49.4888 10.9144 49.8233 10.7406 50.082 10.6711L50.0151 10.4825L49.9972 10.4626ZM41.3269 13.1832L38.8471 10.9392L36.5457 12.9548L41.3314 13.1882L41.3269 13.1832ZM31.5772 12.7215L29.753 10.9888C29.6371 10.9888 29.2446 11.525 29.0617 11.6194C28.919 11.6938 28.7495 11.6392 28.6157 11.7882C28.4819 11.9371 28.3794 12.4187 28.1117 12.5577L29.3695 12.657L29.3606 12.9151L29.0082 12.9896V13.1882C29.3606 13.3371 29.6326 13.0641 29.6103 12.6619L31.5817 12.7265L31.5772 12.7215ZM23.4421 12.3839C23.509 12.3243 22.3538 11.1825 22.2691 11.0584C22.1531 11.0335 21.2522 12.0711 21.1095 12.2201L23.4421 12.3839ZM16.1945 11.1328C16.0161 11.0236 15.3203 11.947 15.3694 11.9867L16.9259 12.0513L16.1989 11.1328H16.1945ZM36.0061 24.9047C36.5859 24.8798 37.1211 24.7359 37.7098 24.7706C38.0265 24.7905 38.3922 24.9493 38.7044 24.8699C38.7802 24.8153 38.7624 23.7777 38.7624 23.599C38.7624 23.1224 38.7178 22.611 38.7222 22.1245C38.7356 19.8308 38.798 17.5223 38.7534 15.2187L38.6107 15.1095C38.0086 15.0648 37.4154 15.0648 36.8133 15.0449C36.5636 15.035 36.2246 14.8464 36.0061 15.0747V24.8947V24.9047ZM36.7687 26.8558C33.776 27.2132 32.1526 31.1303 33.6601 34.0048C35.511 37.5346 40.3189 36.9985 41.4473 33.131C42.4642 29.6558 39.9755 26.4735 36.7687 26.8558ZM31.3408 32.8927L31.2828 30.4601H27.3758C26.7916 30.4601 26.3589 30.9019 26.2742 31.5473C26.2474 31.7658 26.2831 31.9842 26.2519 32.1878C25.9263 34.4963 23.3573 35.5339 21.7695 33.9949C21.0738 33.3197 21.1362 32.5204 19.9498 32.6991C19.4459 32.7785 19.0222 33.3544 19.0757 33.9254C19.1292 34.4963 19.9766 35.524 20.3646 35.8864C22.5768 37.9467 25.9531 37.4602 27.5944 34.819C27.8887 34.3474 28.2143 33.2055 28.5934 33.002C28.8254 32.8778 28.8833 32.9871 29.0885 32.9672C29.8333 32.8927 30.5826 32.8828 31.3364 32.8977L31.3408 32.8927ZM48.8064 32.9622C48.6102 32.5055 48.4541 32.1331 48.7217 31.6367C49.0339 31.8601 49.1543 31.3934 48.8956 31.3636C48.7707 31.3487 48.5522 31.5175 48.5031 31.4728C48.3827 31.0161 47.9813 30.4352 47.5175 30.4352H43.5079C43.3518 30.4352 43.4766 30.9317 43.4811 31.0658C43.4945 31.6814 43.4677 32.292 43.4187 32.8977H46.0189C46.0992 32.8977 46.3935 33.1707 46.4649 33.2651C46.728 33.6176 46.9198 34.3275 47.1963 34.7842C48.735 37.3261 51.9463 37.9368 54.1808 36.1247C54.6669 35.7275 55.666 34.6155 55.6883 33.9353C55.7061 33.4239 55.3582 32.8629 54.9078 32.7339C53.8686 32.436 53.6411 33.4537 53.0212 34.0346C51.6296 35.3403 49.5735 34.7644 48.8019 32.9672C48.9893 32.9523 49.1989 33.0317 49.3416 32.8729C49.6761 32.5055 49.2836 31.6218 49.1632 32.6743L48.8019 32.7041V32.9722L48.8064 32.9622ZM6.38682 34.4169C6.49832 34.1984 6.09691 33.9601 5.85161 34.1885C5.46358 34.5559 6.39128 35.4048 6.56522 34.6452L6.45372 34.4913L6.38682 34.819C5.71335 34.7793 6.34667 34.4814 6.38682 34.4169ZM20.2442 53.0044H26.7648C26.9165 52.8902 26.7871 52.6618 26.7514 52.4881C25.9486 48.8986 24.673 45.3241 23.8613 41.7248L23.7454 41.556L20.1639 52.8554L20.2442 53.0093V53.0044ZM19.0757 55.0002C19.7402 59.1158 24.5437 60.4811 26.97 57.2293C27.2866 56.8023 27.8887 55.6803 27.9066 55.1392C27.9066 55.0597 27.8977 55.0548 27.8397 55.0002H19.0757ZM56.0451 55.1342L47.2052 55.2285C47.8698 58.5052 51.1123 60.1981 53.8106 58.6045C54.8899 57.969 55.9559 56.5144 56.0451 55.1292V55.1342Z" fill="#BDA976"/>
<path d="M5.138 54.1365C5.37438 54.2804 5.92297 55.0351 5.91851 55.3032C5.91405 55.8344 5.138 55.7351 5.138 55.3677V54.1365Z" fill="#BDA976"/>
<path d="M45.9833 55.5859C45.9387 55.6703 45.5551 55.8788 45.4614 55.7944L45.2786 54.4689C45.3767 54.4441 45.399 54.5036 45.457 54.5682C45.6086 54.7419 46.0992 55.3576 45.9833 55.5859Z" fill="#BDA976"/>
<path d="M48.4273 52.0259C48.4496 52.0557 48.5165 52.1897 48.5076 52.1996L47.9858 52.5918C47.4818 52.5273 47.6557 51.6684 48.1508 51.8323C48.1954 51.8472 48.3961 51.9862 48.4273 52.0259Z" fill="#BDA976"/>
<path d="M48.5075 52.4734L48.2399 53.0691L48.0303 52.672L48.5075 52.4734Z" fill="#BDA976"/>
<path d="M6.80165 53.1483C6.76597 53.322 6.90869 53.4015 6.93099 53.5752C6.96667 53.8284 6.90869 54.1412 6.93099 54.4043C6.84179 54.3944 6.74367 54.4242 6.65893 54.4043C6.56081 54.3894 6.07466 53.5951 6.08804 53.5057C6.36456 53.3766 6.46714 52.91 6.79719 53.1483H6.80165Z" fill="#BDA976"/>
<path d="M12.7959 28.6379C12.9386 28.7521 12.7022 29.1542 12.5015 29.0996L12.5283 28.6975C12.5729 28.628 12.7602 28.6081 12.8003 28.6379H12.7959Z" fill="#BDA976"/>
<path d="M48.0303 13.5207C48.2042 13.5405 48.4361 13.4412 48.5655 13.62C48.4094 13.8483 48.0615 13.8334 48.0303 13.5207Z" fill="#BDA976"/>
</svg>
