<svg width="58" height="64" viewBox="0 0 58 64" fill="none" xmlns="http://www.w3.org/2000/svg">
<path d="M39.12 0L57.6793 18.2305C57.9295 18.7431 57.4678 19.714 56.9742 19.714H50.947V39.7976C50.599 40.2362 50.2124 40.3545 49.7006 40.4186C47.2033 40.734 44.1783 40.1746 41.6219 40.4137V45.219C41.6219 45.3274 40.7303 46.8823 40.5393 47.0721C38.9517 48.6147 36.7455 48.2081 35.6606 46.2564C35.5492 46.0568 35.0261 44.8099 35.0261 44.7261V40.4137C32.5902 40.2067 29.7926 40.6921 27.4022 40.4137C26.9473 40.3595 26.1558 40.1672 26.1558 39.5512V19.714H20.1286C19.6715 19.714 19.0756 18.0629 19.8011 17.6342L38.2103 0H39.12ZM53.9038 17.4962L38.747 2.72792L23.4265 17.4962H26.7244C29.8063 14.5267 32.6539 11.2518 35.7061 8.25277C36.2315 7.73774 38.0647 5.88709 38.5514 5.88955C39.1291 5.89202 39.6022 6.42922 40.0321 6.77422L50.3784 17.4962H53.9038ZM48.9 38.1959V19.0979L38.747 8.65198L37.5257 9.48489L28.2028 19.0979V38.1959H35.0261V33.1441C35.0261 33.0677 35.2444 32.8706 35.2512 32.639L35.1534 32.2866C30.359 29.6351 30.4977 21.6681 35.4264 19.2877C43.5847 15.3473 49.1457 27.8978 41.4058 32.3137C41.3421 32.4147 41.6196 32.5971 41.6196 32.6538V37.8287L41.9608 38.1983H48.8978L48.9 38.1959ZM38.3626 20.7933C31.9101 20.818 32.2536 32.0402 39.4475 30.7883C44.4672 29.9135 44.0851 20.7711 38.3626 20.7933ZM39.5749 33.0209L37.1777 33.255L37.1003 35.5764C37.255 36.052 38.4786 35.9706 38.3854 37.0475C38.2921 38.1244 37.1026 37.9001 37.0503 38.5581C36.9298 40.0391 38.2944 39.4378 38.3854 40.5738C38.4764 41.7099 37.1254 41.7715 37.0617 42.0524C37.0503 43.5556 36.7751 45.4383 38.5128 45.7783C38.8676 45.7685 39.5726 45.0095 39.5726 44.7212V33.016L39.5749 33.0209Z" fill="#BDA976"/>
<path d="M0 43.3706C0.31387 43.0749 0.584526 42.9172 1.01212 42.8654C3.95294 42.518 7.52151 43.1045 10.5306 42.927C11.5632 43.2573 11.0196 45.4332 11.1469 46.3252C15.6958 44.3415 20.9474 43.9916 25.826 44.344C29.4788 44.6077 34.6599 46.0911 34.5735 51.0098C37.6485 50.65 40.7417 49.9994 43.6621 48.9029C45.4134 48.2449 47.0418 47.2346 48.784 46.5667C51.5452 45.5096 56.3374 43.7403 58 47.3109V49.0359C55.737 55.1744 48.5043 58.2818 43.1071 60.3764C35.5651 63.3039 27.9231 65.9702 20.2378 61.9806C17.2151 60.4109 15.0794 56.9979 11.3698 59.0137C10.7216 59.5977 11.8611 61.6184 10.0734 62.0447C8.86114 62.333 2.85895 62.2813 1.47382 62.1038C0.825615 62.02 0.493549 61.7564 0 61.3572V43.3682L0 43.3706ZM9.09768 45.0956H2.04698V59.6347H9.09768V45.0956ZM32.5242 51.2562C32.6129 47.5771 28.1983 46.7861 25.585 46.5766C20.9383 46.2045 15.2614 46.5125 11.172 48.9497L11.6018 56.4311C16.1802 54.9304 18.6275 58.9866 22.4599 60.5612C30.2748 63.7721 43.6484 58.7032 50.6468 54.2552C51.8386 53.4987 56.9697 49.5559 55.853 47.7964C55.1001 46.6111 50.2306 48.3977 49.0684 48.8486C43.4596 51.032 40.0071 52.8235 33.7751 53.4716C31.6326 53.6958 25.8465 54.1295 24.0497 53.4149C22.9489 52.9787 23.4356 51.2537 24.2249 51.2537H32.5265L32.5242 51.2562Z" fill="#BDA976"/>
<path d="M37.9236 21.7372C40.4323 21.471 40.7166 25.606 38.3035 25.8746C35.8903 26.1408 35.3285 22.0132 37.9236 21.7372Z" fill="#BDA976"/>
</svg>
